<svg width="324" height="248" viewBox="0 0 324 248" fill="none" xmlns="http://www.w3.org/2000/svg">
<path d="M299.776 224.509C289.16 232.62 276.227 240.837 263.511 244.711C259.846 245.861 256.063 246.595 252.235 246.899C248.655 247.188 245.053 246.908 241.561 246.068C232.384 243.778 223.872 239.768 215.636 235.082C212.945 233.549 210.285 231.945 207.641 230.307C203.325 227.631 199.051 224.861 194.766 222.157C194.125 221.747 193.487 221.345 192.845 220.947H192.841C191.807 220.296 190.77 219.654 189.731 219.02C189.548 218.907 189.365 218.798 189.178 218.685C187.215 217.491 185.217 216.324 183.186 215.185C182.937 215.049 182.688 214.908 182.44 214.772C178.51 212.585 174.471 210.601 170.338 208.83C167.624 207.683 164.875 206.649 162.099 205.767H162.095C161.033 205.432 159.968 205.116 158.898 204.827C155.692 203.944 152.424 203.303 149.123 202.908C144.573 202.355 139.972 202.392 135.431 203.017C135.124 203.06 134.821 203.103 134.514 203.153C122.226 205.127 111.011 211.783 98.6692 213.352C98.2687 213.402 97.8721 213.449 97.4716 213.484C97.3005 213.5 97.1294 213.519 96.9583 213.531C93.3716 213.839 89.7621 213.75 86.1949 213.266C76.2286 211.947 66.5228 207.854 57.7853 202.697C37.3589 190.638 20.7939 172.102 10.7226 150.637C8.99315 146.958 7.45766 143.191 6.1225 139.35C2.38949 128.7 0.33371 117.532 0.0291744 106.247C-0.915736 67.0928 21.2605 27.8099 56.0783 10.1015C90.9 -7.60683 136.707 -1.75086 164.79 25.4534C181.825 41.9563 191.683 64.3189 204.503 84.2979C217.323 104.273 235.545 123.355 259.047 126.265C271.02 127.748 283.549 124.88 295.024 128.61C301.378 130.677 306.798 134.633 311.165 139.674C314.101 143.095 316.558 146.901 318.468 150.988C319.867 153.943 321.003 157.016 321.862 160.172C322.022 160.753 322.17 161.334 322.313 161.916C328.03 185.34 318.895 209.895 299.776 224.509Z" fill="#F2F2F2"/>
<path d="M108.554 182.105H72.0016C66.5254 182.105 62.0859 186.56 62.0859 192.054V192.054C62.0859 197.548 66.5254 202.002 72.0016 202.002H108.554C114.03 202.002 118.469 197.548 118.469 192.054C118.469 186.56 114.03 182.105 108.554 182.105Z" fill="#3F3D56"/>
<path d="M97.4715 196.931V213.484C93.7168 213.849 89.9327 213.775 86.1948 213.266V196.931H97.4715Z" fill="#3F3D56"/>
<path d="M135.431 203.017C135.124 203.06 134.821 203.103 134.514 203.153C122.226 205.127 111.011 211.783 98.6691 213.351C98.2686 213.402 97.872 213.449 97.4715 213.484C97.3004 213.5 97.1293 213.519 96.9582 213.531C93.9446 210.57 90.931 207.417 88.1002 204.152C86.5642 202.385 85.0788 200.582 83.6828 198.756C80.0587 194.043 76.9867 189.198 74.9569 184.438C75.163 182.156 73.7476 176.877 73.071 172.836L73.0671 172.832C72.7794 171.135 72.6238 169.66 72.7677 168.712C73.5921 163.242 78.0444 163.87 79.4132 158.51C80.6479 157.482 81.9625 156.554 83.3445 155.736C83.5739 155.599 83.8072 155.463 84.0483 155.326L98.9024 145.027L104.58 150.613L113.22 159.118L122.584 168.33L114.635 176.386C114.635 176.386 121.277 184.068 129.042 194.309C131.127 197.059 133.293 199.997 135.431 203.017Z" fill="#2F2E41"/>
<path d="M263.511 196.931V244.711C259.846 245.861 256.063 246.595 252.235 246.899V196.931H263.511Z" fill="#3F3D56"/>
<path d="M278.093 193.029H241.541C236.065 193.029 231.625 197.483 231.625 202.978V202.978C231.625 208.472 236.065 212.926 241.541 212.926H278.093C283.57 212.926 288.009 208.472 288.009 202.978C288.009 197.483 283.57 193.029 278.093 193.029Z" fill="#3F3D56"/>
<path d="M189.178 218.685C187.215 217.491 185.217 216.324 183.186 215.185C182.937 215.049 182.688 214.908 182.439 214.772L183.777 214.198L187.386 212.642L187.421 212.626L187.459 212.759L189.178 218.685Z" fill="#FFB6B6"/>
<path d="M194.766 222.157C194.124 221.747 193.487 221.345 192.845 220.947H192.841C191.807 220.296 190.77 219.653 189.73 219.02C189.548 218.907 189.365 218.798 189.178 218.685C187.215 217.491 185.217 216.324 183.186 215.185C182.937 215.049 182.688 214.908 182.44 214.772C178.51 212.585 174.471 210.601 170.338 208.83C167.624 207.683 164.875 206.649 162.099 205.767H162.095L159.913 202.104L150.095 185.605L147.937 181.98C147.937 181.98 140.576 184.165 130.158 186.26C126.367 187.025 122.175 187.774 117.777 188.406C113.076 189.077 108.145 189.612 103.246 189.869C100.909 189.994 98.5797 190.056 96.2855 190.037C90.3555 189.998 84.6588 189.44 79.6698 188.113C78.0056 186.545 72.9894 184.411 69.3964 182.456H69.3925C67.8837 181.637 66.6316 180.853 65.9745 180.155C62.1871 176.136 65.4223 173.003 62.0548 168.618C62.0095 167.01 62.0914 165.4 62.2998 163.804C62.3348 163.539 62.3698 163.269 62.4126 162.996L63.4741 144.91L71.3601 143.864L83.36 142.272L96.3594 140.548L97.7903 151.792C97.7903 151.792 107.912 151.277 120.736 151.448C141.334 151.729 168.896 153.789 172.629 162.63C172.979 163.461 173.329 164.299 173.679 165.138C174.511 167.144 175.335 169.159 176.152 171.185C179.111 178.52 181.934 185.925 184.512 192.924C186.114 197.278 187.623 201.476 189.011 205.404C190.127 208.564 191.161 211.553 192.106 214.303C192.97 216.816 193.751 219.129 194.447 221.205C194.556 221.529 194.661 221.849 194.766 222.157Z" fill="#2F2E41"/>
<path d="M122.223 112.572L97.3154 91.3481L113.521 74.8933L124.827 93.4728L166.735 101.809C167.995 100.857 169.504 100.294 171.077 100.188C172.651 100.082 174.221 100.438 175.597 101.212C176.972 101.986 178.094 103.145 178.824 104.547C179.555 105.949 179.863 107.535 179.711 109.11C179.559 110.685 178.954 112.181 177.969 113.417C176.984 114.653 175.662 115.574 174.164 116.069C172.666 116.564 171.056 116.611 169.532 116.204C168.008 115.797 166.635 114.954 165.58 113.778L122.223 112.572Z" fill="#A0616A"/>
<path d="M75.3025 63.4547C72.4239 72.8502 99.8389 95.2587 99.8389 95.2587C100.143 93.0031 115.687 112.453 116.744 110.692C119.75 105.686 123.057 93.3106 126.527 91.7289C128.511 90.8244 117.128 78.2522 117.128 78.2522C117.128 78.2522 111.321 70.5447 103.655 60.7763C101.538 57.9743 98.7496 55.755 95.5484 54.3252C92.3472 52.8953 88.8375 52.3013 85.3459 52.5985C85.3459 52.5985 78.1811 54.0592 75.3025 63.4547Z" fill="#3F3D56"/>
<path d="M87.4238 42.655C96.7279 42.655 104.27 35.0876 104.27 25.7527C104.27 16.4178 96.7279 8.85034 87.4238 8.85034C78.1196 8.85034 70.5771 16.4178 70.5771 25.7527C70.5771 35.0876 78.1196 42.655 87.4238 42.655Z" fill="#A0616A"/>
<path d="M95.847 53.8261C99.4764 55.9909 101.647 59.9685 102.894 64.016C105.201 71.5095 106.59 79.2571 107.03 87.0876L108.346 110.531L124.649 160.448C110.52 172.443 57.4094 163.174 57.4094 163.174C57.4094 163.174 55.7791 162.629 57.4094 160.993C59.0397 159.357 60.6269 160.806 58.9966 159.171C57.3663 157.535 58.4901 159.357 59.0336 157.721C59.577 156.086 59.0336 157.176 58.4901 156.631C57.9467 156.086 62.6972 151.179 62.6972 151.179L58.3497 122.526L52.9153 64.7308C59.4366 56.5522 72.5517 51.7311 72.5517 51.7311L75.9405 45.6111L92.8844 46.9711L95.847 53.8261Z" fill="#3F3D56"/>
<path d="M101.311 16.7727C102.62 17.7525 103.59 19.1197 104.085 20.6817C104.275 18.129 104.287 15.5661 104.121 13.0118C103.922 11.2168 102.663 10.8131 101.204 10.3453C99.8871 9.92258 98.3975 9.44512 97.9968 7.70263C92.7011 2.53392 83.4826 2.79456 77.1736 4.59748C73.7021 5.5896 71.7046 6.86427 71.5258 7.61099L71.4888 7.7647L71.3478 7.83542C68.6719 9.17782 68.151 13.4168 68.1854 16.7365C68.2506 22.9909 70.403 30.0944 71.6155 30.6715C71.6797 30.702 71.6959 30.69 71.7237 30.6668C73.5495 29.2029 75.7771 30.7781 76.7559 31.6344C77.3333 27.7471 79.1924 24.1661 82.0362 21.4633C84.8801 18.7604 88.5446 17.0917 92.4446 16.7236C93.7183 16.6001 94.9818 16.3875 96.2259 16.0874C96.857 15.9236 97.5057 15.8382 98.1576 15.8331C99.2797 15.816 100.38 16.1439 101.311 16.7727V16.7727Z" fill="#2F2E41"/>
<path d="M80.0837 138.037L74.9303 135.389C74.6542 135.192 74.4581 134.902 74.3777 134.571C74.2974 134.241 74.3383 133.892 74.4928 133.589C74.6474 133.287 74.9053 133.05 75.2195 132.922C75.5337 132.794 75.8833 132.784 76.2043 132.894L81.3577 135.542C81.6338 135.739 81.8299 136.03 81.9102 136.36C81.9905 136.691 81.9497 137.039 81.7952 137.342C81.6406 137.644 81.3827 137.881 81.0684 138.009C80.7542 138.137 80.4047 138.147 80.0837 138.037L80.0837 138.037Z" fill="#9E0000"/>
<path d="M62.7397 130.943L54.2623 99.2787L76.9163 94.9761L75.6981 116.71L105.464 147.46C107.039 147.396 108.6 147.792 109.955 148.602C111.31 149.412 112.4 150.6 113.094 152.021C113.788 153.442 114.054 155.035 113.861 156.605C113.668 158.176 113.024 159.656 112.007 160.865C110.99 162.075 109.645 162.961 108.134 163.416C106.624 163.872 105.014 163.876 103.501 163.43C101.988 162.983 100.637 162.104 99.6135 160.9C98.5897 159.697 97.9371 158.22 97.7353 156.651L62.7397 130.943Z" fill="#A0616A"/>
<path d="M51.9441 63.7762C44.2546 69.8669 54.1242 103.935 54.1242 103.935C55.6522 102.253 57.4279 127.119 59.2957 126.272C64.604 123.866 74.3336 115.568 78.0845 116.244C80.2296 116.631 77.9822 99.7961 77.9822 99.7961C77.9822 99.7961 77.5689 90.1435 76.792 77.7346C76.6372 74.2224 75.5992 70.8065 73.7747 67.805C71.9501 64.8034 69.3984 62.3139 66.3569 60.568C66.3569 60.568 59.6337 57.6856 51.9441 63.7762Z" fill="#3F3D56"/>
<path d="M318.468 150.988L10.7225 150.637C8.99309 146.958 7.4576 143.191 6.12244 139.35L311.165 139.674C314.101 143.094 316.558 146.901 318.468 150.988V150.988Z" fill="#3F3D56"/>
<path d="M220.45 232.847C218.859 233.619 217.255 234.364 215.636 235.082C212.945 233.549 210.285 231.945 207.641 230.307L217.448 225.984L220.45 232.847Z" fill="#FFB6B6"/>
<path d="M291.952 179.086C290.358 181.231 288.713 183.334 287.017 185.394C285.454 187.294 283.849 189.158 282.203 190.985C281.523 191.742 280.835 192.495 280.131 193.24C278.836 194.633 277.512 196.002 276.161 197.348C273.726 198.117 268.796 199.47 263.511 200.734C259.666 201.651 255.633 202.521 252.235 203.075C250.332 203.418 248.407 203.624 246.476 203.692C244.181 203.711 241.852 203.649 239.515 203.524C236.879 203.383 234.238 203.165 231.629 202.884C224.844 202.17 218.272 201.058 212.603 199.915C210.526 199.502 208.574 199.08 206.778 198.671C203.375 197.902 200.529 197.184 198.468 196.638C196.147 196.029 194.824 195.635 194.824 195.635L189.011 205.404L185.994 210.472L183.777 214.198L183.186 215.185C182.937 215.049 182.688 214.908 182.44 214.772C178.51 212.585 174.471 210.601 170.338 208.83C167.624 207.683 164.875 206.649 162.099 205.767H162.095C161.033 205.432 159.968 205.116 158.898 204.827C159.233 203.926 159.571 203.018 159.913 202.104C160.551 200.399 161.202 198.678 161.865 196.942C163.3 193.181 164.786 189.366 166.314 185.57C167.566 182.453 168.841 179.347 170.132 176.284C170.727 174.872 171.937 173.631 173.628 172.543C174.437 172.032 175.28 171.578 176.152 171.185C180.993 168.973 188.125 167.534 195.983 166.609C196.633 166.535 197.286 166.461 197.943 166.391C204.449 165.704 211.351 165.349 217.806 165.185C221.037 165.103 224.156 165.072 227.056 165.068C227.994 165.068 228.905 165.071 229.79 165.076H229.794C232.185 165.087 234.386 165.123 236.323 165.162C236.7 165.169 237.065 165.181 237.423 165.189H237.427C237.668 165.193 237.905 165.201 238.139 165.205C242.373 165.314 244.971 165.446 244.971 165.446L245.978 157.519L246.184 155.919L246.378 154.398V154.394L246.402 154.203L246.561 154.199L249.361 154.144L272.894 153.684L285.75 153.43L283.712 162.193L280.349 176.651C280.691 178.937 292.069 177.147 291.952 179.086Z" fill="#2F2E41"/>
<path d="M223.351 231.403C222.39 231.895 221.422 232.379 220.45 232.847C218.859 233.619 217.255 234.364 215.636 235.082C212.945 233.549 210.285 231.946 207.641 230.307C203.325 227.631 199.051 224.861 194.766 222.157C194.125 221.747 193.487 221.345 192.845 220.948H192.841C191.076 218.318 189.276 215.579 187.46 212.759C187.432 212.72 187.409 212.681 187.386 212.641C186.919 211.924 186.455 211.201 185.994 210.472C183.089 205.908 180.169 201.148 177.334 196.287L184.512 192.924L197.858 186.674L200.16 185.597L206.778 198.671L212.681 210.332L213.995 212.926L223.351 231.403Z" fill="#2F2E41"/>
<path d="M225.362 168.637L259.387 135.716L268.817 108.925L254.907 102.856C247.762 109.723 240.039 131.112 240.039 131.112L216.625 160.998C216.442 161.061 216.26 161.127 216.081 161.207C215.026 161.673 214.109 162.405 213.419 163.331C212.728 164.257 212.288 165.346 212.139 166.493C211.991 167.639 212.14 168.805 212.572 169.877C213.004 170.949 213.704 171.891 214.605 172.613C215.506 173.334 216.577 173.81 217.715 173.994C218.853 174.179 220.019 174.066 221.1 173.666C222.182 173.266 223.142 172.593 223.889 171.712C224.635 170.831 225.143 169.772 225.362 168.637V168.637Z" fill="#FFB8B8"/>
<path d="M250.993 105.847L268.637 111.467L268.704 111.456C275.271 110.353 280.72 99.5913 284.135 90.758C285.258 87.8444 285.237 84.6115 284.076 81.7128C282.915 78.8141 280.7 76.4659 277.879 75.143V75.143C275.792 74.1812 273.478 73.8243 271.199 74.1128C268.92 74.4013 266.767 75.3236 264.983 76.7755L255.923 84.2034L250.993 105.847Z" fill="#9E0000"/>
<path d="M291.881 179.481L291.984 179.343C297.489 172.018 289.96 153.878 288.822 151.247L293.94 149.726L293.048 139.947L292.618 135.587L296.598 131.795L296.612 131.698L299.349 112.155L302.93 99.2207C304.28 94.3309 304.308 89.1688 303.013 84.2642C301.717 79.3597 299.144 74.8894 295.557 71.3123L288.236 64.0195L279.465 50.2452L264.759 49.8643L259.471 59.2896C254.553 60.2965 250.143 63.0026 247.009 66.9363C243.875 70.87 242.216 75.782 242.321 80.8168L242.819 105.909L237.542 136.998L237.394 142.645L232.215 148.128L233.172 153.672L229.298 155.22L227.402 163.098C226.678 164.007 221.898 170.07 221.854 171.76C221.848 172.013 222.028 172.264 222.422 172.546C225.516 174.767 242.812 179.581 250.596 176.687C258.888 173.607 291.385 179.391 291.712 179.45L291.881 179.481Z" fill="#9E0000"/>
<path d="M270.827 45.6417C281.587 45.6417 290.31 36.8901 290.31 26.0944C290.31 15.2987 281.587 6.54712 270.827 6.54712C260.067 6.54712 251.344 15.2987 251.344 26.0944C251.344 36.8901 260.067 45.6417 270.827 45.6417Z" fill="#FFB8B8"/>
<path d="M268.451 45.9032C271.468 45.9504 274.483 45.739 277.465 45.2712C280.42 44.6683 287.03 39.808 288.873 36.8833C290.242 34.7103 291.118 31.317 291.611 28.8531C292.276 25.5927 292.25 22.2286 291.537 18.9786C290.823 15.7286 289.437 12.6652 287.468 9.98682C286.712 8.86652 285.667 7.97221 284.446 7.39851C284.337 7.35603 284.226 7.31839 284.113 7.2862C282.333 6.81629 280.734 5.82331 279.52 4.43474C279.285 4.15388 279.03 3.89039 278.757 3.64632C277.385 2.48503 275.759 1.66589 274.012 1.25584C271.191 0.49842 267.109 1.25026 261.879 3.49263C259.251 4.61924 256.378 4.21151 254.167 3.7304C254.043 3.70637 253.915 3.71533 253.795 3.7564C253.676 3.79747 253.569 3.86921 253.486 3.96448C252.546 4.85037 251.306 5.34625 250.016 5.35246C249.225 5.38727 248.396 6.48494 247.394 7.91634C247.167 8.24126 246.902 8.62049 246.71 8.85114L246.685 8.408L246.238 8.90235C245.535 9.67931 245.04 10.622 244.798 11.6427C244.557 12.6633 244.576 13.7288 244.856 14.7397C245.135 15.7507 245.665 16.6743 246.395 17.4246C247.126 18.1749 248.034 18.7274 249.035 19.0307C249.83 19.2429 250.644 19.3731 251.466 19.4193C251.963 19.4642 252.478 19.5107 252.971 19.5965C254.553 19.9216 256.025 20.6529 257.241 21.7189C258.458 22.785 259.378 24.1493 259.913 25.6788C260.039 26.0323 260.245 26.352 260.514 26.6132C260.783 26.8743 261.108 27.0699 261.464 27.1849C261.821 27.2999 262.199 27.3313 262.569 27.2764C262.939 27.2216 263.292 27.0822 263.6 26.8688C264.114 26.4676 264.717 26.1969 265.357 26.0799C265.998 25.9628 266.657 26.003 267.278 26.1969C267.816 26.4966 268.234 26.9725 268.463 27.5448C268.741 28.1824 269.202 28.7224 269.788 29.0958C271.79 30.1317 271.928 34.7205 271.209 38.5458C270.516 42.2331 269.146 44.9005 267.877 45.0324C266.9 45.1338 266.788 45.2034 266.717 45.3767L266.654 45.5319L266.764 45.677C267.304 45.8732 267.879 45.9504 268.451 45.9032V45.9032Z" fill="#2F2E41"/>
<path d="M255.831 99.9377L248.319 84.9114C237.415 85.6587 215.774 98.3077 215.774 98.3077L174.828 107.018C173.615 106.55 172.301 106.411 171.017 106.615C169.734 106.819 168.527 107.358 167.517 108.179C166.507 109 165.731 110.073 165.266 111.291C164.801 112.508 164.665 113.827 164.869 115.115C165.074 116.402 165.613 117.613 166.433 118.625C167.252 119.637 168.322 120.414 169.537 120.879C170.751 121.344 172.065 121.48 173.348 121.273C174.631 121.066 175.837 120.524 176.845 119.7L228.93 115.955L255.831 99.9377Z" fill="#FFB8B8"/>
<path d="M252.801 102.405L272.42 87.777L275.876 75.2821C276.546 72.8266 276.517 70.2322 275.794 67.7921C275.071 65.3519 273.682 63.1632 271.785 61.4734V61.4734C269.197 59.2002 265.845 57.9976 262.408 58.1089C258.97 58.2202 255.702 59.637 253.266 62.0729C245.883 69.4665 237.462 79.7812 239.271 86.9337L239.29 87.0062L252.801 102.405Z" fill="#9E0000"/>
<path d="M228.514 141.531H176.02V148.553H228.514V141.531Z" fill="white"/>
<path d="M94.3606 141.531H41.8656V148.553H94.3606V141.531Z" fill="white"/>
<path d="M100.49 107.76V141.196C100.491 141.622 100.66 142.031 100.96 142.332C101.26 142.634 101.667 142.803 102.092 142.803H151.478C151.903 142.803 152.31 142.634 152.61 142.332C152.911 142.031 153.08 141.622 153.08 141.196V107.76C153.079 107.334 152.91 106.926 152.61 106.625C152.309 106.325 151.902 106.155 151.478 106.155H102.092C101.668 106.155 101.261 106.325 100.961 106.625C100.661 106.926 100.491 107.334 100.49 107.76Z" fill="#3F3D56"/>
<path d="M101.649 108.176V140.784C101.65 141.012 101.74 141.23 101.9 141.391C102.061 141.552 102.278 141.642 102.505 141.643H151.067C151.294 141.642 151.512 141.552 151.672 141.391C151.832 141.23 151.923 141.012 151.923 140.784V108.176C151.923 107.948 151.833 107.73 151.673 107.568C151.512 107.407 151.294 107.316 151.067 107.315H102.505C102.278 107.316 102.06 107.407 101.9 107.568C101.739 107.73 101.649 107.948 101.649 108.176Z" fill="#9E0000"/>
<path d="M99.4576 147.717C99.548 147.831 99.663 147.923 99.7939 147.986C99.9248 148.049 100.068 148.081 100.213 148.08H153.094C153.239 148.08 153.381 148.047 153.512 147.985C153.642 147.922 153.757 147.832 153.849 147.719C153.94 147.606 154.005 147.475 154.039 147.333C154.073 147.192 154.075 147.046 154.045 146.904L153.224 142.992C153.19 142.832 153.117 142.684 153.011 142.56C152.905 142.436 152.77 142.341 152.618 142.282C152.508 142.239 152.391 142.217 152.273 142.217H101.031C100.913 142.217 100.796 142.239 100.686 142.282C100.534 142.341 100.399 142.436 100.293 142.56C100.187 142.684 100.114 142.832 100.08 142.992L99.2589 146.904C99.2296 147.046 99.2323 147.192 99.2667 147.333C99.3011 147.474 99.3663 147.605 99.4576 147.717V147.717Z" fill="#2F2E41"/>
<path d="M150.459 143.902H151.708C151.813 143.902 151.898 143.817 151.898 143.711V143.112C151.898 143.007 151.813 142.921 151.708 142.921H150.459C150.354 142.921 150.269 143.007 150.269 143.112V143.711C150.269 143.817 150.354 143.902 150.459 143.902Z" fill="#3F3D56"/>
<path d="M147.201 143.902H148.45C148.555 143.902 148.64 143.817 148.64 143.711V143.112C148.64 143.007 148.555 142.921 148.45 142.921H147.201C147.096 142.921 147.011 143.007 147.011 143.112V143.711C147.011 143.817 147.096 143.902 147.201 143.902Z" fill="#3F3D56"/>
<path d="M143.944 143.902H145.193C145.298 143.902 145.383 143.817 145.383 143.711V143.112C145.383 143.007 145.298 142.921 145.193 142.921H143.944C143.839 142.921 143.754 143.007 143.754 143.112V143.711C143.754 143.817 143.839 143.902 143.944 143.902Z" fill="#3F3D56"/>
<path d="M140.687 143.902H141.936C142.04 143.902 142.125 143.817 142.125 143.711V143.112C142.125 143.007 142.04 142.921 141.936 142.921H140.687C140.582 142.921 140.497 143.007 140.497 143.112V143.711C140.497 143.817 140.582 143.902 140.687 143.902Z" fill="#3F3D56"/>
<path d="M137.429 143.902H138.678C138.783 143.902 138.868 143.817 138.868 143.711V143.112C138.868 143.007 138.783 142.921 138.678 142.921H137.429C137.324 142.921 137.239 143.007 137.239 143.112V143.711C137.239 143.817 137.324 143.902 137.429 143.902Z" fill="#3F3D56"/>
<path d="M134.172 143.902H135.421C135.526 143.902 135.611 143.817 135.611 143.711V143.112C135.611 143.007 135.526 142.921 135.421 142.921H134.172C134.067 142.921 133.982 143.007 133.982 143.112V143.711C133.982 143.817 134.067 143.902 134.172 143.902Z" fill="#3F3D56"/>
<path d="M130.914 143.902H132.163C132.268 143.902 132.353 143.817 132.353 143.711V143.112C132.353 143.007 132.268 142.921 132.163 142.921H130.914C130.81 142.921 130.725 143.007 130.725 143.112V143.711C130.725 143.817 130.81 143.902 130.914 143.902Z" fill="#3F3D56"/>
<path d="M127.657 143.902H128.906C129.011 143.902 129.096 143.817 129.096 143.711V143.112C129.096 143.007 129.011 142.921 128.906 142.921H127.657C127.552 142.921 127.467 143.007 127.467 143.112V143.711C127.467 143.817 127.552 143.902 127.657 143.902Z" fill="#3F3D56"/>
<path d="M124.4 143.902H125.649C125.753 143.902 125.838 143.817 125.838 143.711V143.112C125.838 143.007 125.753 142.921 125.649 142.921H124.4C124.295 142.921 124.21 143.007 124.21 143.112V143.711C124.21 143.817 124.295 143.902 124.4 143.902Z" fill="#3F3D56"/>
<path d="M121.142 143.902H122.391C122.496 143.902 122.581 143.817 122.581 143.711V143.112C122.581 143.007 122.496 142.921 122.391 142.921H121.142C121.037 142.921 120.952 143.007 120.952 143.112V143.711C120.952 143.817 121.037 143.902 121.142 143.902Z" fill="#3F3D56"/>
<path d="M117.885 143.902H119.134C119.238 143.902 119.323 143.817 119.323 143.711V143.112C119.323 143.007 119.238 142.921 119.134 142.921H117.885C117.78 142.921 117.695 143.007 117.695 143.112V143.711C117.695 143.817 117.78 143.902 117.885 143.902Z" fill="#3F3D56"/>
<path d="M114.627 143.902H115.876C115.981 143.902 116.066 143.817 116.066 143.711V143.112C116.066 143.007 115.981 142.921 115.876 142.921H114.627C114.522 142.921 114.437 143.007 114.437 143.112V143.711C114.437 143.817 114.522 143.902 114.627 143.902Z" fill="#3F3D56"/>
<path d="M111.37 143.902H112.619C112.724 143.902 112.809 143.817 112.809 143.711V143.112C112.809 143.007 112.724 142.921 112.619 142.921H111.37C111.265 142.921 111.18 143.007 111.18 143.112V143.711C111.18 143.817 111.265 143.902 111.37 143.902Z" fill="#3F3D56"/>
<path d="M108.112 143.902H109.361C109.466 143.902 109.551 143.817 109.551 143.711V143.112C109.551 143.007 109.466 142.921 109.361 142.921H108.112C108.008 142.921 107.923 143.007 107.923 143.112V143.711C107.923 143.817 108.008 143.902 108.112 143.902Z" fill="#3F3D56"/>
<path d="M104.855 143.902H106.104C106.209 143.902 106.294 143.817 106.294 143.711V143.112C106.294 143.007 106.209 142.921 106.104 142.921H104.855C104.75 142.921 104.665 143.007 104.665 143.112V143.711C104.665 143.817 104.75 143.902 104.855 143.902Z" fill="#3F3D56"/>
<path d="M101.598 143.902H102.847C102.952 143.902 103.037 143.817 103.037 143.711V143.112C103.037 143.007 102.952 142.921 102.847 142.921H101.598C101.493 142.921 101.408 143.007 101.408 143.112V143.711C101.408 143.817 101.493 143.902 101.598 143.902Z" fill="#3F3D56"/>
<path d="M150.497 145.536H151.746C151.851 145.536 151.936 145.451 151.936 145.346V144.746C151.936 144.641 151.851 144.556 151.746 144.556H150.497C150.392 144.556 150.307 144.641 150.307 144.746V145.346C150.307 145.451 150.392 145.536 150.497 145.536Z" fill="#3F3D56"/>
<path d="M147.24 145.536H148.489C148.594 145.536 148.679 145.451 148.679 145.346V144.746C148.679 144.641 148.594 144.556 148.489 144.556H147.24C147.135 144.556 147.05 144.641 147.05 144.746V145.346C147.05 145.451 147.135 145.536 147.24 145.536Z" fill="#3F3D56"/>
<path d="M143.982 145.536H145.232C145.336 145.536 145.421 145.451 145.421 145.346V144.746C145.421 144.641 145.336 144.556 145.232 144.556H143.982C143.878 144.556 143.793 144.641 143.793 144.746V145.346C143.793 145.451 143.878 145.536 143.982 145.536Z" fill="#3F3D56"/>
<path d="M140.725 145.536H141.974C142.079 145.536 142.164 145.451 142.164 145.346V144.746C142.164 144.641 142.079 144.556 141.974 144.556H140.725C140.62 144.556 140.535 144.641 140.535 144.746V145.346C140.535 145.451 140.62 145.536 140.725 145.536Z" fill="#3F3D56"/>
<path d="M137.468 145.536H138.717C138.821 145.536 138.906 145.451 138.906 145.346V144.746C138.906 144.641 138.821 144.556 138.717 144.556H137.468C137.363 144.556 137.278 144.641 137.278 144.746V145.346C137.278 145.451 137.363 145.536 137.468 145.536Z" fill="#3F3D56"/>
<path d="M134.21 145.536H135.459C135.564 145.536 135.649 145.451 135.649 145.346V144.746C135.649 144.641 135.564 144.556 135.459 144.556H134.21C134.105 144.556 134.02 144.641 134.02 144.746V145.346C134.02 145.451 134.105 145.536 134.21 145.536Z" fill="#3F3D56"/>
<path d="M130.953 145.536H132.202C132.307 145.536 132.392 145.451 132.392 145.346V144.746C132.392 144.641 132.307 144.556 132.202 144.556H130.953C130.848 144.556 130.763 144.641 130.763 144.746V145.346C130.763 145.451 130.848 145.536 130.953 145.536Z" fill="#3F3D56"/>
<path d="M127.695 145.536H128.944C129.049 145.536 129.134 145.451 129.134 145.346V144.746C129.134 144.641 129.049 144.556 128.944 144.556H127.695C127.591 144.556 127.506 144.641 127.506 144.746V145.346C127.506 145.451 127.591 145.536 127.695 145.536Z" fill="#3F3D56"/>
<path d="M124.438 145.536H125.687C125.792 145.536 125.877 145.451 125.877 145.346V144.746C125.877 144.641 125.792 144.556 125.687 144.556H124.438C124.333 144.556 124.248 144.641 124.248 144.746V145.346C124.248 145.451 124.333 145.536 124.438 145.536Z" fill="#3F3D56"/>
<path d="M121.181 145.536H122.43C122.534 145.536 122.619 145.451 122.619 145.346V144.746C122.619 144.641 122.534 144.556 122.43 144.556H121.181C121.076 144.556 120.991 144.641 120.991 144.746V145.346C120.991 145.451 121.076 145.536 121.181 145.536Z" fill="#3F3D56"/>
<path d="M117.923 145.536H119.172C119.277 145.536 119.362 145.451 119.362 145.346V144.746C119.362 144.641 119.277 144.556 119.172 144.556H117.923C117.818 144.556 117.733 144.641 117.733 144.746V145.346C117.733 145.451 117.818 145.536 117.923 145.536Z" fill="#3F3D56"/>
<path d="M114.666 145.536H115.915C116.02 145.536 116.105 145.451 116.105 145.346V144.746C116.105 144.641 116.02 144.556 115.915 144.556H114.666C114.561 144.556 114.476 144.641 114.476 144.746V145.346C114.476 145.451 114.561 145.536 114.666 145.536Z" fill="#3F3D56"/>
<path d="M111.408 145.536H112.657C112.762 145.536 112.847 145.451 112.847 145.346V144.746C112.847 144.641 112.762 144.556 112.657 144.556H111.408C111.303 144.556 111.218 144.641 111.218 144.746V145.346C111.218 145.451 111.303 145.536 111.408 145.536Z" fill="#3F3D56"/>
<path d="M108.151 145.536H109.4C109.505 145.536 109.59 145.451 109.59 145.346V144.746C109.59 144.641 109.505 144.556 109.4 144.556H108.151C108.046 144.556 107.961 144.641 107.961 144.746V145.346C107.961 145.451 108.046 145.536 108.151 145.536Z" fill="#3F3D56"/>
<path d="M104.894 145.536H106.143C106.248 145.536 106.333 145.451 106.333 145.346V144.746C106.333 144.641 106.248 144.556 106.143 144.556H104.894C104.789 144.556 104.704 144.641 104.704 144.746V145.346C104.704 145.451 104.789 145.536 104.894 145.536Z" fill="#3F3D56"/>
<path d="M101.636 145.536H102.885C102.99 145.536 103.075 145.451 103.075 145.346V144.746C103.075 144.641 102.99 144.556 102.885 144.556H101.636C101.531 144.556 101.446 144.641 101.446 144.746V145.346C101.446 145.451 101.531 145.536 101.636 145.536Z" fill="#3F3D56"/>
<path d="M123.461 147.497H136.111C136.216 147.497 136.301 147.412 136.301 147.307V146.707C136.301 146.602 136.216 146.517 136.111 146.517H123.461C123.356 146.517 123.271 146.602 123.271 146.707V147.307C123.271 147.412 123.356 147.497 123.461 147.497Z" fill="#3F3D56"/>
</svg>
