<svg height="496pt" viewBox="0 0 496.44 496" width="496pt" xmlns="http://www.w3.org/2000/svg"><path d="m224 288.21875v-32h-16v32c0 26.472656-21.527344 48-48 48v16c35.289062 0 64-28.710938 64-64zm0 0"/><path d="m208 224.21875h16v16h-16zm0 0"/><path d="m139.574219 181.484375-3.832031-7.671875-2.710938-8.136719c-2.046875-6.144531-5.542969-11.808593-10.121094-16.367187-4.566406-4.578125-10.230468-8.082032-16.375-10.128906l-8.136718-2.703126-7.664063-3.832031c-11.558594-5.792969-25.902344-5.785156-37.46875 0l-7.664063 3.832031-8.136718 2.710938c-6.144532 2.046875-11.808594 5.542969-16.367188 10.121094-4.578125 4.566406-8.082031 10.230468-10.128906 16.375l-2.710938 8.136718-3.832031 7.671876c-2.898437 5.785156-4.425781 12.265624-4.425781 18.726562 0 6.464844 1.527344 12.945312 4.425781 18.738281l3.832031 7.671875 2.710938 8.136719c2.046875 6.140625 5.542969 11.804687 10.121094 16.367187 4.574218 4.574219 10.238281 8.070313 16.367187 10.121094l8.136719 2.710938 7.671875 3.832031c3.390625 1.695313 7.023437 2.855469 10.734375 3.582031v16.839844c0 44.632812 30.664062 82.144531 72 92.839844v67.160156h-32c-22.054688 0-40 17.945312-40 40v8h192v-8c0-22.054688-17.945312-40-40-40h-32v-67.160156c41.335938-10.695313 72-48.207032 72-92.839844v-96h-112.839844c-.726562-3.710938-1.886718-7.34375-3.585937-10.734375zm-18.832031-2.074219 4.523437 9.226563c.566406 1.136719.902344 2.375 1.292969 3.582031h-32.03125c-.773438-2.183594-1.832032-4.222656-3.175782-6.0625l20.152344-25.609375c.03125.03125.070313.050781.097656.082031 2.824219 2.824219 4.984376 6.320313 6.246094 10.117188zm-48.742188 28.808594c-4.40625 0-8-3.589844-8-8 0-4.40625 3.59375-8 8-8s8 3.59375 8 8c0 4.410156-3.59375 8-8 8zm11.574219-61.261719 8.179687 4.085938 5.414063 1.855469-19.054688 24.21875c-1.960937-.527344-3.984375-.898438-6.113281-.898438-.847656 0-1.65625.167969-2.480469.25l-11.359375-28.410156 2.273438-1.109375c7.132812-3.570313 16-3.570313 23.140625.007812zm-60.75 33.503907 3.328125-9.722657c1.261718-3.796875 3.421875-7.292969 6.253906-10.125 2.824219-2.824219 6.320312-4.984375 10.121094-6.25l.808594-.269531 11.679687 29.191406c-2.054687 2.054688-3.703125 4.503906-4.902344 7.191406l-30.128906-4.34375zm.433593 40.566406-4.523437-9.222656c-1.558594-3.121094-2.34375-6.570313-2.550781-10.039063l32.753906 4.71875c.773438 2.847656 2.015625 5.480469 3.710938 7.808594l-20.152344 25.605469c-.03125-.03125-.070313-.046876-.097656-.078126-2.824219-2.824218-4.984376-6.320312-6.246094-10.121093zm37.167969 32.457031-8.1875-4.089844-5.414062-1.847656 17.175781-21.824219v29.058594c-1.207031-.394531-2.441406-.730469-3.574219-1.296875zm178.207031 226.734375h-157.265624c3.304687-9.3125 12.199218-16 22.632812-16h112c10.433594 0 19.328125 6.6875 22.632812 16zm-70.632812-32h-16v-64.40625c2.648438.222656 5.296875.40625 8 .40625s5.351562-.183594 8-.40625zm72-160c0 44.113281-35.886719 80-80 80s-80-35.886719-80-80v-65.472656c6.777344-2.414063 12.113281-7.75 14.527344-14.527344h145.472656zm0 0"/><path d="m440 448.21875h-24v-32h18.65625c16.222656 0 29.886719-12.152344 31.769531-28.167969l30.015625-230.703125-7.472656-7.472656c-4-4-8.625-7.136719-13.625-9.421875 2.945312-6.320313 4.65625-13.199219 4.65625-20.234375 0-21.007812-13.59375-38.863281-32.425781-45.351562-2.125-25.109376-18.742188-46.800782-42.988281-54.878907l-44.585938-14.871093v13.984374c0 13.589844-9.128906 25.695313-22.199219 29.429688-13.335937 3.808594-23.855469 13.402344-29.425781 25.503906l-10.078125-54.199218c-2.113281-11.367188-12.03125-19.617188-23.59375-19.617188h-42.703125v16h42.703125c3.847656 0 7.160156 2.753906 7.863281 6.539062l14.394532 77.382813c-10.039063 5.40625-16.960938 15.894531-16.960938 28.078125 0 6.058594 1.847656 11.738281 4.929688 16.714844-2.074219 1.488281-4.058594 3.101562-5.898438 4.941406l-7.472656 7.472656 30 230.609375c1.898437 16.109375 15.5625 28.261719 31.785156 28.261719h18.65625v32h-24c-22.054688 0-40 17.945312-40 40v8h192v-8c0-22.054688-17.945312-40-40-40zm39.558594-285.125-26.6875 205.125h-36.253906l15.144531-204.4375 2.582031-2.585938c11.566406-11.566406 31.746094-11.566406 43.3125 0zm-183.558594-34.875c0-8.824219 7.175781-16 16-16h40v-16h-32v-2.878906c0-13.59375 9.128906-25.695313 22.199219-29.433594 17.296875-4.941406 30.058593-19.503906 33.105469-36.820312l24.214843 8.070312c16.847657 5.625 28.871094 19.992188 31.777344 37.0625h-31.296875v16h32c17.648438 0 32 14.351562 32 32 0 5.792969-1.566406 11.289062-4.457031 16.175781-1.175781-.085937-2.351563-.175781-3.542969-.175781-11.488281 0-22.335938 4.128906-30.863281 11.671875-9.976563-12.398437-25.03125-19.671875-41.136719-19.671875s-31.160156 7.273438-41.136719 19.671875c-8.527343-7.542969-19.375-11.671875-30.863281-11.671875-4.335938 0-8.574219.625-12.640625 1.761719-2.144531-2.769531-3.359375-6.160157-3.359375-9.761719zm-7.558594 34.875 1.902344-1.90625c11.566406-11.566406 31.746094-11.566406 43.3125 0l2.582031 2.585938 5.707031 77.03125 15.949219-1.175782-5.71875-77.257812 1.167969-1.742188c6.847656-10.273437 18.3125-16.410156 30.65625-16.410156s23.808594 6.136719 30.65625 16.410156l1.167969 1.742188-15.25 205.847656h-33.140625l-8.34375-112.589844-15.953125 1.175782 8.246093 111.414062h-36.253906zm29 222.902344-.234375-1.777344h133.585938l-.242188 1.875c-.949219 8.054688-7.78125 14.125-15.894531 14.125h-101.3125c-8.113281 0-14.945312-6.070312-15.902344-14.222656zm50.558594 30.222656h32v32h-32zm-62.632812 64c3.304687-9.3125 12.199218-16 22.632812-16h112c10.433594 0 19.328125 6.6875 22.632812 16zm0 0"/></svg>