<svg height="496pt" viewBox="0 -36 496 496" width="496pt" xmlns="http://www.w3.org/2000/svg"><path d="m451.144531 296c22.597657-11.808594 34.289063-25.992188 35.101563-27l3.257812-4.089844-86.703125-165.535156c-3.671875-7.015625-10.878906-11.375-18.800781-11.375s-15.128906 4.359375-18.800781 11.375l-29.070313 55.503906c-18.898437-24.214844-46.542968-39.367187-77.199218-42.304687 5.917968-33.574219 20.710937-65.199219 43.140624-91.375l-12.140624-10.398438c-12.617188 14.710938-22.921876 31.054688-30.898438 48.421875-11.933594-34.421875-44.589844-59.222656-83.03125-59.222656h-24v8c0 48.519531 39.480469 88 88 88h6.230469c-1.328125 5.359375-2.476563 10.753906-3.375 16.214844-43.199219 2.015625-81.558594 29.128906-98.128907 68.625-4.886718-3.015625-10.582031-4.839844-16.726562-4.839844-11.679688 0-21.808594 6.351562-27.398438 15.71875-5.585937-4.742188-12.714843-7.71875-20.601562-7.71875-2.335938 0-4.601562.28125-6.792969.761719 1.21875-8.503907 3.335938-16.859375 6.535157-24.824219 4.273437 5.070312 10.578124 8.0625 17.425781 8.0625 12.59375 0 22.832031-10.238281 22.832031-22.832031v-2.328125c0-12.601563-10.238281-22.839844-23.601562-22.839844-6 0-11.726563 2.40625-15.941407 6.496094-5.554687-13.175782-8.457031-27.480469-8.457031-41.769532v-12.726562h-16v12.726562c0 19.074219 4.503906 38.167969 13.039062 55.242188l1.207032 2.421875c-7.207032 13.679687-11.742188 28.585937-13.453125 43.921875-5.785157-18.878906-8.792969-38.417969-8.792969-58.3125v-8h-48v8c0 27.183594 10.367188 52.734375 29.128906 72.289062-16.28125 1.480469-29.128906 15.046876-29.128906 31.710938 0 17.648438 14.351562 32 32 32 .398438 0 .777344-.105469 1.175781-.121094-.695312 2.609375-1.175781 5.296875-1.175781 8.121094 0 9.609375 4.335938 18.128906 11.054688 24h-43.054688v8c0 43.054688 31.105469 78.921875 72 86.472656v33.527344h352v-33.527344c40.894531-7.550781 72-43.417968 72-86.472656v-8zm-282.695312-280h7.550781c37 0 67.558594 28.046875 71.550781 64h-7.550781c-37 0-67.558594-28.046875-71.550781-64zm-77.914063 123.320312c1.234375-2.046874 3.480469-3.320312 6.632813-3.320312 3.761719 0 6.832031 3.070312 6.832031 6.832031v2.328125c0 3.769532-3.070312 6.839844-6.832031 6.839844-2.601563 0-4.945313-1.449219-6.113281-3.785156l-2.664063-5.320313zm293.464844 156.679688c-48.390625 0-76.902344-23.816406-86.3125-33.257812l7.425781-14.167969c17.230469 15.59375 43.472657 31.425781 78.886719 31.425781s61.65625-15.832031 78.894531-31.425781l7.410157 14.136719c-9.464844 9.386718-38.265626 33.289062-86.304688 33.289062zm-4.625-189.199219c1.816406-3.457031 7.441406-3.457031 9.25 0l66.535156 127.015625c-14.894531 14.414063-38.527344 30.183594-71.160156 30.183594s-56.265625-15.769531-71.160156-30.191406zm-138.597656 21.503907c-.488282 5.785156-.777344 11.605468-.777344 17.457031v11.902343c-5.671875-3.367187-8.824219-9.199218-8.863281-9.28125l-14.289063 7.203126c.410156.828124 10.449219 20.414062 31.152344 20.414062s30.742188-19.585938 31.160156-20.425781l-14.289062-7.199219c-.046875.082031-3.191406 5.921875-8.863282 9.28125v-11.894531c0-5.761719.265626-11.496094.785157-17.203125 28.949219 2.601562 54.734375 17.914062 70.96875 42.3125l-49.257813 94.039062 3.257813 4.089844c.8125 1.007812 12.503906 15.191406 35.101562 27h-89.3125c2.753907-4.726562 4.449219-10.144531 4.449219-16 0-17.648438-14.351562-32-32-32-2.824219 0-5.511719.480469-8.121094 1.175781.015625-.398437.121094-.777343.121094-1.175781 0-17.648438-14.351562-32-32-32-.398438 0-.777344.105469-1.175781.121094.695312-2.609375 1.175781-5.296875 1.175781-8.121094 0-4.945312-1.214844-9.566406-3.222656-13.742188 12.023437-36.859374 45.550781-63.019531 84-65.953124zm-112.777344 127.695312c0 8.824219-7.175781 16-16 16s-16-7.175781-16-16 7.175781-16 16-16 16 7.175781 16 16zm32 8c-8.824219 0-16-7.175781-16-16s7.175781-16 16-16 16 7.175781 16 16-7.175781 16-16 16zm-80 8c0 8.824219-7.175781 16-16 16s-16-7.175781-16-16 7.175781-16 16-16 16 7.175781 16 16zm24 16c8.824219 0 16 7.175781 16 16s-7.175781 16-16 16-16-7.175781-16-16 7.175781-16 16-16zm48-8c8.824219 0 16 7.175781 16 16s-7.175781 16-16 16-16-7.175781-16-16 7.175781-16 16-16zm32 0c0-8.824219 7.175781-16 16-16s16 7.175781 16 16-7.175781 16-16 16-16-7.175781-16-16zm-56-88c8.824219 0 16 7.175781 16 16s-7.175781 16-16 16-16-7.175781-16-16 7.175781-16 16-16zm-32 24c0 8.824219-7.175781 16-16 16s-16-7.175781-16-16 7.175781-16 16-16 16 7.175781 16 16zm-63.847656-80c.664062 18.273438 3.632812 36.230469 8.839844 53.664062-14.257813-14.6875-22.839844-33.472656-24.640626-53.664062zm-16.152344 96c0-8.824219 7.175781-16 16-16s16 7.175781 16 16-7.175781 16-16 16-16-7.175781-16-16zm392 144h-32v16h32v16h-320v-16h272v-16h-272c-37 0-67.558594-28.046875-71.550781-64h56.6875c3.574219 13.769531 15.992187 24 30.863281 24 11.679688 0 21.808594-6.351562 27.398438-15.71875 5.585937 4.742188 12.714843 7.71875 20.601562 7.71875 11.792969 0 22-6.480469 27.550781-16h300.007813c-4 35.953125-34.558594 64-71.558594 64zm0 0"/><path d="m376 160h16v16h-16zm0 0"/><path d="m416 216h16v16h-16zm0 0"/><path d="m336 216h16v16h-16zm0 0"/></svg>