<svg height="496pt" viewBox="0 -24 496 496" width="496pt" xmlns="http://www.w3.org/2000/svg"><path d="m448 80v-80h-122.742188c-28.730468 0-55.875 10.257812-77.257812 29.039062-21.382812-18.78125-48.527344-29.039062-77.257812-29.039062h-122.742188v80h-48v320h192.566406c3.890625 27.105469 27.265625 48 55.433594 48s51.535156-20.894531 55.433594-48h192.566406v-320zm-384-64h106.742188c25.984374 0 50.417968 9.808594 69.257812 27.527344v148.472656h16v-148.472656c18.839844-17.71875 43.273438-27.527344 69.257812-27.527344h106.742188v320h-176v-128h-16v128h-176zm416 368h-192v8c0 22.054688-17.945312 40-40 40s-40-17.945312-40-40v-8h-192v-288h32v256h400v-256h32zm0 0"/><path d="m144 32c-29.777344 0-48 48.007812-48 74.152344 0 15.464844 7.535156 30.0625 20.167969 39.054687 2.433593 1.730469 3.832031 4.21875 3.832031 6.792969v144c0 13.230469 10.769531 24 24 24s24-10.769531 24-24v-144c0-2.574219 1.398438-5.0625 3.832031-6.800781 12.632813-8.992188 20.167969-23.589844 20.167969-39.046875 0-26.144532-18.222656-74.152344-48-74.152344zm18.550781 100.167969c-6.605469 4.710937-10.550781 12.121093-10.550781 19.832031v144c0 4.414062-3.585938 8-8 8s-8-3.585938-8-8v-144c0-7.710938-3.945312-15.121094-10.550781-19.832031-8.425781-6-13.449219-15.71875-13.449219-26.015625 0-19.65625 14.488281-58.152344 32-58.152344s32 38.496094 32 58.152344c0 10.296875-5.023438 20.015625-13.449219 26.015625zm0 0"/><path d="m360 32h16v81.609375h-16zm0 0"/><path d="m328 32h16v81.609375h-16zm0 0"/><path d="m328 179.222656v116.777344c0 13.230469 10.769531 24 24 24s24-10.769531 24-24v-116.777344c0-14.703125 5.0625-29.132812 14.246094-40.613281 11.449218-14.304687 17.753906-32.28125 17.753906-50.609375v-56h-16v56c0 14.710938-5.0625 29.136719-14.246094 40.609375-11.449218 14.320313-17.753906 32.285156-17.753906 50.613281v116.777344c0 4.414062-3.585938 8-8 8s-8-3.585938-8-8v-116.777344c0-18.328125-6.304688-36.292968-17.753906-50.613281-9.183594-11.472656-14.246094-25.898437-14.246094-40.609375v-56h-16v56c0 18.328125 6.304688 36.304688 17.753906 50.609375 9.183594 11.488281 14.246094 25.910156 14.246094 40.613281zm0 0"/></svg>